<svg width="300" height="300" viewBox="0 0 300 300" fill="none" xmlns="http://www.w3.org/2000/svg">
<rect width="300" height="300" fill="white"/>
<path d="M236.182 245.364C241.705 245.364 246.182 240.887 246.182 235.364L246.182 145.364C246.182 139.842 241.705 135.364 236.182 135.364C230.659 135.364 226.182 139.842 226.182 145.364V225.364H146.182C140.659 225.364 136.182 229.842 136.182 235.364C136.182 240.887 140.659 245.364 146.182 245.364L236.182 245.364ZM55.7468 69.0711L142.429 155.753L156.571 141.611L69.8889 54.9289L55.7468 69.0711ZM142.429 155.753L229.111 242.436L243.253 228.293L156.571 141.611L142.429 155.753Z" fill="#23B9FF"/>
<path d="M62 52C56.4772 52 52 56.4771 52 62L52 152C52 157.523 56.4771 162 62 162C67.5228 162 72 157.523 72 152L72 72L152 72C157.523 72 162 67.5228 162 62C162 56.4771 157.523 52 152 52L62 52ZM244.071 229.929L69.0711 54.9289L54.9289 69.0711L229.929 244.071L244.071 229.929Z" fill="#23B9FF"/>
</svg>
